<?xml version="1.0" encoding="UTF-8"?>
<!DOCTYPE svg PUBLIC "-//W3C//DTD SVG 1.1//EN" "http://www.w3.org/Graphics/SVG/1.1/DTD/svg11.dtd">
<!-- Creator: CorelDRAW 2018 (64-Bit) -->
<svg xmlns="http://www.w3.org/2000/svg" xml:space="preserve" width="32px" height="32px" version="1.1" style="shape-rendering:geometricPrecision; text-rendering:geometricPrecision; image-rendering:optimizeQuality; fill-rule:evenodd; clip-rule:evenodd"
viewBox="0 0 32 32"
 xmlns:xlink="http://www.w3.org/1999/xlink">
 <defs>
  <style type="text/css">
   <![CDATA[
    .fil0 {fill:black}
   ]]>
  </style>
 </defs>
 <g id="Слой_x0020_1">
  <metadata id="CorelCorpID_0Corel-Layer"/>
  <path class="fil0" d="M11.69 26.66c-0.69,-0.28 -1.02,-1.07 -0.74,-1.76 0.28,-0.69 1.06,-1.02 1.75,-0.74 0.69,0.28 1.03,1.06 0.75,1.75 -0.28,0.69 -1.07,1.03 -1.76,0.75zm7.61 -18.81c-0.7,-0.28 -1.03,-1.07 -0.75,-1.76 0.28,-0.69 1.07,-1.02 1.76,-0.75 0.69,0.28 1.02,1.07 0.74,1.76 -0.28,0.69 -1.06,1.02 -1.75,0.75zm-13.88 12.64c-0.29,-0.68 0.03,-1.47 0.71,-1.77 0.69,-0.29 1.48,0.03 1.77,0.72 0.29,0.68 -0.03,1.47 -0.71,1.77 -0.69,0.29 -1.48,-0.03 -1.77,-0.72zm18.68 -7.93c-0.29,-0.68 0.03,-1.47 0.71,-1.76 0.69,-0.29 1.48,0.03 1.77,0.71 0.29,0.69 -0.03,1.48 -0.71,1.77 -0.69,0.29 -1.48,-0.03 -1.77,-0.72zm-18.76 -0.86c0.28,-0.69 1.07,-1.03 1.76,-0.75 0.69,0.28 1.02,1.07 0.74,1.76 -0.27,0.69 -1.06,1.02 -1.75,0.74 -0.69,-0.28 -1.02,-1.06 -0.75,-1.75zm18.82 7.6c0.27,-0.69 1.06,-1.03 1.75,-0.75 0.69,0.28 1.03,1.07 0.75,1.76 -0.28,0.69 -1.07,1.02 -1.76,0.74 -0.69,-0.28 -1.02,-1.06 -0.74,-1.75zm-12.65 -13.88c0.68,-0.29 1.48,0.03 1.77,0.72 0.29,0.68 -0.03,1.47 -0.72,1.76 -0.68,0.29 -1.47,-0.03 -1.76,-0.71 -0.29,-0.69 0.02,-1.48 0.71,-1.77zm7.93 18.68c0.68,-0.29 1.47,0.03 1.76,0.71 0.3,0.69 -0.02,1.48 -0.71,1.77 -0.68,0.29 -1.48,-0.03 -1.77,-0.71 -0.29,-0.69 0.03,-1.48 0.72,-1.77zm2.58 -8.81c-0.4,0.16 -0.59,0.6 -0.43,1 0.16,0.4 0.61,0.59 1.01,0.43 0.39,-0.16 0.58,-0.61 0.42,-1.01 -0.16,-0.39 -0.61,-0.58 -1,-0.42zm-12.62 0c-0.39,0.16 -0.58,0.6 -0.42,1 0.16,0.4 0.61,0.59 1,0.43 0.4,-0.16 0.59,-0.61 0.43,-1.01 -0.16,-0.39 -0.61,-0.58 -1.01,-0.42zm7.31 6.73c-0.15,-0.39 -0.6,-0.59 -1,-0.43 -0.39,0.16 -0.58,0.61 -0.42,1.01 0.15,0.39 0.6,0.58 1,0.42 0.39,-0.16 0.58,-0.61 0.42,-1zm0 -12.62c-0.15,-0.39 -0.6,-0.58 -1,-0.42 -0.39,0.16 -0.58,0.61 -0.42,1 0.15,0.4 0.6,0.59 1,0.43 0.39,-0.16 0.58,-0.61 0.42,-1.01zm4.07 2.4c-0.21,-0.54 -0.83,-0.8 -1.37,-0.58 -0.55,0.21 -0.81,0.83 -0.59,1.38 0.22,0.54 0.84,0.8 1.38,0.58 0.54,-0.22 0.8,-0.84 0.58,-1.38zm-7.6 7.61c-0.22,-0.55 -0.84,-0.81 -1.38,-0.59 -0.54,0.22 -0.8,0.84 -0.58,1.38 0.21,0.54 0.83,0.81 1.37,0.59 0.55,-0.22 0.81,-0.84 0.59,-1.38zm-1.96 -7.61c0.21,-0.54 0.83,-0.8 1.37,-0.58 0.55,0.21 0.81,0.83 0.59,1.38 -0.22,0.54 -0.84,0.8 -1.38,0.58 -0.54,-0.22 -0.8,-0.84 -0.58,-1.38zm7.6 7.61c0.22,-0.55 0.84,-0.81 1.38,-0.59 0.54,0.22 0.8,0.84 0.58,1.38 -0.21,0.54 -0.83,0.81 -1.37,0.59 -0.55,-0.22 -0.81,-0.84 -0.59,-1.38zm-14.13 7.91c-0.83,-0.83 -0.83,-2.17 0,-3 0.82,-0.83 2.16,-0.83 2.99,0 0.83,0.83 0.83,2.17 0,3 -0.83,0.82 -2.17,0.82 -2.99,0zm19.63 -19.64c-0.83,-0.83 -0.83,-2.17 0,-2.99 0.83,-0.83 2.17,-0.83 2.99,0 0.83,0.82 0.83,2.16 0,2.99 -0.82,0.83 -2.16,0.83 -2.99,0zm-24.32 8.32c0,-1.17 0.95,-2.12 2.12,-2.12 1.17,0 2.12,0.95 2.12,2.12 0,1.17 -0.95,2.12 -2.12,2.12 -1.17,0 -2.12,-0.95 -2.12,-2.12zm27.76 0c0,-1.17 0.95,-2.12 2.12,-2.12 1.17,0 2.12,0.95 2.12,2.12 0,1.17 -0.95,2.12 -2.12,2.12 -1.17,0 -2.12,-0.95 -2.12,-2.12zm-23.07 -11.31c0.82,-0.83 2.16,-0.83 2.99,0 0.83,0.82 0.83,2.16 0,2.99 -0.83,0.83 -2.17,0.83 -2.99,0 -0.83,-0.83 -0.83,-2.17 0,-2.99zm19.63 19.63c0.83,-0.83 2.17,-0.83 2.99,0 0.83,0.83 0.83,2.17 0,3 -0.82,0.82 -2.16,0.82 -2.99,0 -0.83,-0.83 -0.83,-2.17 0,-3zm-8.32 -24.32c1.17,0 2.12,0.95 2.12,2.12 0,1.17 -0.95,2.12 -2.12,2.12 -1.17,0 -2.12,-0.95 -2.12,-2.12 0,-1.17 0.95,-2.12 2.12,-2.12zm0 27.77c1.17,0 2.12,0.94 2.12,2.11 0,1.17 -0.95,2.12 -2.12,2.12 -1.17,0 -2.12,-0.95 -2.12,-2.12 0,-1.17 0.95,-2.11 2.12,-2.11zm0 -15.76l0 0c0,2.2 1.79,3.99 3.99,3.99l0 0c-2.2,0 -3.99,1.8 -3.99,3.99l0 0c0,-2.19 -1.79,-3.99 -3.99,-3.99l0 0c2.2,0 3.99,-1.79 3.99,-3.99z"/>
 </g>
</svg>
