<svg width="241" height="85" viewBox="0 0 241 85" fill="none" xmlns="http://www.w3.org/2000/svg">
<path fill-rule="evenodd" clip-rule="evenodd" d="M31.0664 70.803C29.2342 70.061 28.3469 67.9745 29.0889 66.1423C29.8278 64.3102 31.9173 63.4229 33.7495 64.1648C35.5817 64.9068 36.4659 66.9933 35.727 68.8255C34.9881 70.6576 32.8985 71.5449 31.0664 70.803ZM51.2534 20.8381C49.4182 20.0991 48.534 18.0096 49.2729 16.1774C50.0148 14.3453 52.1014 13.458 53.9335 14.1999C55.7657 14.9419 56.653 17.0284 55.911 18.8605C55.1691 20.6927 53.0826 21.58 51.2504 20.8381H51.2534ZM14.4013 54.4286C13.6291 52.6086 14.4801 50.5069 16.2971 49.7347C18.1171 48.9624 20.2188 49.8104 20.991 51.6304C21.7633 53.4505 20.9153 55.5522 19.0953 56.3244C17.2783 57.0966 15.1735 56.2457 14.4013 54.4286ZM64.0089 33.3724C63.2366 31.5524 64.0876 29.4507 65.9046 28.6785C67.7247 27.9063 69.8264 28.7572 70.5986 30.5742C71.3708 32.3943 70.5229 34.496 68.7028 35.2682C66.8828 36.0404 64.7811 35.1895 64.0089 33.3724ZM14.1984 31.0679C14.9404 29.2357 17.0269 28.3484 18.8591 29.0903C20.6912 29.8293 21.5785 31.9188 20.8366 33.751C20.0946 35.5832 18.0081 36.4674 16.1759 35.7285C14.3438 34.9866 13.4565 32.9 14.1984 31.0679ZM64.1633 51.2549C64.9022 49.4197 66.9918 48.5354 68.824 49.2744C70.6561 50.0163 71.5434 52.1029 70.8015 53.935C70.0595 55.7672 67.973 56.6545 66.1408 55.9125C64.3087 55.1706 63.4214 53.084 64.1633 51.2519V51.2549ZM30.5728 14.4028C32.3928 13.6306 34.4945 14.4815 35.2667 16.2986C36.0389 18.1186 35.191 20.2203 33.371 20.9925C31.5509 21.7647 29.4492 20.9168 28.677 19.0968C27.9048 17.2797 28.7527 15.175 30.5728 14.4028ZM51.6289 64.0104C53.449 63.2381 55.5507 64.0861 56.3229 65.9061C57.0951 67.7262 56.2442 69.8278 54.4271 70.6001C52.6071 71.3723 50.5054 70.5244 49.7332 68.7043C48.961 66.8843 49.8119 64.7826 51.6289 64.0104ZM58.4851 40.6042C57.4373 41.0281 56.9316 42.2213 57.3525 43.2691C57.7765 44.3169 58.9697 44.8227 60.0175 44.4017C61.0653 43.9778 61.5741 42.7846 61.1501 41.7368C60.7261 40.689 59.533 40.1832 58.4851 40.6042ZM24.9794 40.6042C23.9316 41.0281 23.4258 42.2213 23.8468 43.2691C24.2707 44.3169 25.4639 44.8227 26.5117 44.4017C27.5595 43.9778 28.0653 42.7846 27.6443 41.7368C27.2204 40.689 26.0272 40.1832 24.9763 40.6042H24.9794ZM44.3972 58.4897C43.9732 57.4419 42.7801 56.9361 41.7323 57.3601C40.6844 57.7841 40.1787 58.9772 40.5997 60.025C41.0236 61.0729 42.2168 61.5786 43.2646 61.1576C44.3124 60.7337 44.8182 59.5405 44.3942 58.4897H44.3972ZM44.3972 24.9839C43.9732 23.9361 42.7801 23.4303 41.7323 23.8513C40.6844 24.2753 40.1787 25.4684 40.5997 26.5162C41.0236 27.5641 42.2168 28.0698 43.2646 27.6488C44.3124 27.2249 44.8182 26.0317 44.3942 24.9809L44.3972 24.9839ZM55.2085 31.3495C54.627 29.908 52.9856 29.2115 51.5441 29.796C50.1026 30.3774 49.4061 32.0188 49.9876 33.4603C50.569 34.9018 52.2104 35.5983 53.6519 35.0168C55.0934 34.4354 55.7899 32.794 55.2085 31.3525V31.3495ZM35.0093 51.5487C34.4279 50.1072 32.7865 49.4106 31.345 49.9951C29.9035 50.5766 29.207 52.2179 29.7884 53.6594C30.3699 55.1009 32.0112 55.7975 33.4527 55.213C34.8942 54.6315 35.5907 52.9902 35.0093 51.5487ZM29.7914 31.3495C30.3729 29.908 32.0143 29.2115 33.4558 29.796C34.8973 30.3774 35.5938 32.0188 35.0123 33.4603C34.4309 34.9018 32.7895 35.5983 31.348 35.0168C29.9065 34.4354 29.213 32.794 29.7945 31.3525L29.7914 31.3495ZM49.9906 51.5487C50.572 50.1072 52.2134 49.4137 53.6549 49.9951C55.0964 50.5766 55.7929 52.2179 55.2115 53.6594C54.63 55.1009 52.9887 55.7944 51.5472 55.213C50.1057 54.6315 49.4122 52.9902 49.9936 51.5487H49.9906ZM12.448 72.5564C10.2525 70.3608 10.2525 66.7965 12.448 64.6009C14.6436 62.4053 18.208 62.4053 20.4035 64.6009C22.5991 66.7965 22.5991 70.3608 20.4035 72.5564C18.208 74.752 14.6436 74.752 12.448 72.5564ZM64.5964 20.408C62.4008 18.2125 62.4008 14.6481 64.5964 12.4525C66.7919 10.257 70.3563 10.257 72.5519 12.4525C74.7474 14.6481 74.7474 18.2125 72.5519 20.408C70.3563 22.6036 66.795 22.6036 64.5964 20.408ZM0.00146484 42.503C0.00146484 39.3959 2.52106 36.8763 5.62816 36.8763C8.73525 36.8763 11.2548 39.3959 11.2548 42.503C11.2548 45.6101 8.73525 48.1296 5.62816 48.1296C2.52106 48.1296 0.00146484 45.6101 0.00146484 42.503ZM73.7481 42.503C73.7481 39.3959 76.2677 36.8763 79.3748 36.8763C82.4819 36.8763 85.0015 39.3959 85.0015 42.503C85.0015 45.6101 82.4819 48.1296 79.3748 48.1296C76.2677 48.1296 73.7481 45.6101 73.7481 42.503ZM12.448 12.4525C14.6436 10.257 18.208 10.257 20.4035 12.4525C22.5991 14.6481 22.5991 18.2125 20.4035 20.408C18.208 22.6036 14.6436 22.6036 12.448 20.408C10.2525 18.2125 10.2525 14.6481 12.448 12.4525ZM64.5964 64.6009C66.7919 62.4053 70.3563 62.4053 72.5519 64.6009C74.7474 66.7965 74.7474 70.3608 72.5519 72.5564C70.3563 74.752 66.795 74.752 64.5964 72.5564C62.4008 70.3608 62.4008 66.7965 64.5964 64.6009ZM42.5015 0.00598145C45.6086 0.00598145 48.1282 2.52558 48.1282 5.63267C48.1282 8.73977 45.6086 11.2594 42.5015 11.2594C39.3944 11.2594 36.8748 8.73977 36.8748 5.63267C36.8748 2.52558 39.3944 0.00598145 42.5015 0.00598145ZM42.5015 73.7526C45.6086 73.7526 48.1282 76.2722 48.1282 79.3793C48.1282 82.4864 45.6086 85.006 42.5015 85.006C39.3944 85.006 36.8748 82.4864 36.8748 79.3793C36.8748 76.2722 39.3944 73.7526 42.5015 73.7526Z" fill="#FEFEFE"/>
<path fill-rule="evenodd" clip-rule="evenodd" d="M96.8151 26.7102H101.264V58.2899H96.8151V26.7102ZM232.477 51.6699H216.423L213.61 58.2899H208.377L222.674 26.7102H226.229L240.526 58.2899H235.293L232.48 51.6699H232.477ZM188.75 45.9009H178.663V58.2899H174.214V26.7102H192.121C203.653 26.7102 205.152 43.4751 194.077 45.701L202.768 58.2929H197.481L188.753 45.9039L188.75 45.9009ZM154.387 46.6307L146.94 58.2899H142.607V26.7102H147.056V49.8498L161.831 26.7102H167.106L157.022 42.5L167.106 58.2899H161.831L154.384 46.6307H154.387ZM118.562 26.7102H133.858V31.1588H118.298C116.378 31.1588 113.868 31.7009 113.026 33.6693C112.396 35.135 113.062 36.6795 114.346 37.5365C115.636 38.3966 117.88 38.9144 119.385 39.2688C121.708 39.8169 124.043 40.2954 126.323 41.0101C130.887 42.4425 135.248 44.8379 135.396 50.1921C135.569 56.3517 130.269 58.2869 124.997 58.2869H108.853V53.8382H109.107C112.505 53.8382 115.906 53.9351 119.307 53.9291C121.196 53.926 127.138 53.9987 128.758 53.3961C130.133 52.8873 131.114 51.6457 130.99 50.1436C130.817 48.0934 128.795 46.7094 127.068 45.9796C123.919 44.6441 120.473 44.1808 117.178 43.3389C114.177 42.5727 111.142 41.4552 109.446 38.6843C107.956 36.2465 107.932 33.2423 109.486 30.8317C111.442 27.7913 115.115 26.7071 118.559 26.7071L118.562 26.7102ZM218.313 47.2212H230.584L224.448 32.776L218.313 47.2212ZM178.663 41.4522H192.121C198.886 41.4522 198.886 31.1618 192.121 31.1618H178.663V41.4522Z" fill="#F7FF05"/>
<path d="M98.6715 70.5426C98.3081 70.5426 97.9568 70.4851 97.6207 70.373C97.2815 70.261 97.018 70.1156 96.8242 69.9339L97.0786 69.3949C97.2633 69.5614 97.4995 69.6947 97.7842 69.7977C98.0719 69.9006 98.3657 69.9521 98.6715 69.9521C99.0713 69.9521 99.3711 69.8855 99.5679 69.7492C99.7648 69.6129 99.8647 69.4342 99.8647 69.2071C99.8647 69.0406 99.8102 68.9073 99.7012 68.8043C99.5921 68.7014 99.4589 68.6226 99.3014 68.5681C99.1439 68.5136 98.9198 68.45 98.6291 68.3804C98.2657 68.2926 97.972 68.2047 97.7509 68.1199C97.5268 68.0321 97.336 67.8989 97.1785 67.7172C97.0211 67.5355 96.9393 67.2902 96.9393 66.9813C96.9393 66.7239 97.0059 66.4907 97.1422 66.2848C97.2785 66.0788 97.4844 65.9123 97.76 65.7881C98.0356 65.6639 98.3778 65.6003 98.7866 65.6003C99.0713 65.6003 99.3529 65.6367 99.6285 65.7094C99.9041 65.782 100.14 65.888 100.34 66.0273L100.113 66.5785C99.9101 66.4513 99.6951 66.3514 99.4649 66.2848C99.2348 66.2181 99.0107 66.1848 98.7896 66.1848C98.399 66.1848 98.1052 66.2575 97.9114 66.3998C97.7146 66.5422 97.6176 66.7269 97.6176 66.951C97.6176 67.1176 97.6722 67.2508 97.7842 67.3538C97.8932 67.4567 98.0325 67.5385 98.193 67.596C98.3566 67.6536 98.5776 67.7141 98.8593 67.7777C99.2227 67.8656 99.5134 67.9534 99.7345 68.0412C99.9555 68.129 100.143 68.2623 100.304 68.4409C100.461 68.6196 100.54 68.8619 100.54 69.1647C100.54 69.4161 100.47 69.6493 100.334 69.8582C100.195 70.0672 99.9858 70.2337 99.7072 70.3549C99.4256 70.476 99.0834 70.5366 98.6745 70.5366L98.6715 70.5426ZM103.541 65.6609C104.165 65.6609 104.659 65.8093 105.016 66.1091C105.376 66.4089 105.555 66.8208 105.555 67.3447C105.555 67.8686 105.376 68.2804 105.016 68.5803C104.659 68.8801 104.165 69.0284 103.541 69.0284H102.348V70.4911H101.657V65.6639H103.541V65.6609ZM103.52 68.4258C103.956 68.4258 104.289 68.3319 104.519 68.1472C104.749 67.9594 104.865 67.6929 104.865 67.3447C104.865 66.9964 104.749 66.7269 104.519 66.5422C104.289 66.3574 103.956 66.2636 103.52 66.2636H102.348V68.4288H103.52V68.4258ZM109.513 69.2798H106.948L106.418 70.4851H105.706L107.893 65.6579H108.574L110.767 70.4851H110.043L109.513 69.2798ZM109.271 68.7286L108.229 66.3635L107.187 68.7286H109.268H109.271ZM114.825 70.4881L113.783 69.0072C113.656 69.0163 113.553 69.0224 113.48 69.0224H112.287V70.4911H111.597V65.6639H113.48C114.104 65.6639 114.598 65.8123 114.955 66.1121C115.315 66.4119 115.494 66.8238 115.494 67.3477C115.494 67.7202 115.403 68.0382 115.218 68.2986C115.034 68.5591 114.773 68.7498 114.431 68.871L115.576 70.4911H114.825V70.4881ZM113.459 68.4349C113.895 68.4349 114.228 68.341 114.458 68.1533C114.689 67.9655 114.804 67.696 114.804 67.3477C114.804 66.9994 114.689 66.7299 114.458 66.5452C114.228 66.3605 113.895 66.2666 113.459 66.2666H112.287V68.4379H113.459V68.4349ZM118.295 68.344L117.414 69.2404V70.4881H116.724V65.6609H117.414V68.3561L120.034 65.6609H120.818L118.756 67.8322L120.948 70.4881H120.143L118.295 68.344ZM125.827 70.5426C125.339 70.5426 124.9 70.4366 124.509 70.2216C124.119 70.0066 123.813 69.7129 123.589 69.3343C123.365 68.9588 123.253 68.5379 123.253 68.0715C123.253 67.6081 123.365 67.1872 123.589 66.8087C123.813 66.4331 124.119 66.1364 124.509 65.9244C124.9 65.7094 125.339 65.6034 125.827 65.6034C126.308 65.6034 126.747 65.7094 127.138 65.9244C127.529 66.1364 127.835 66.4331 128.056 66.8056C128.277 67.1811 128.386 67.6021 128.386 68.0715C128.386 68.5409 128.277 68.9618 128.056 69.3373C127.835 69.7129 127.529 70.0066 127.138 70.2186C126.747 70.4306 126.311 70.5396 125.827 70.5396V70.5426ZM125.827 69.9279C126.181 69.9279 126.499 69.8491 126.781 69.6856C127.062 69.5251 127.286 69.304 127.45 69.0194C127.614 68.7377 127.695 68.4197 127.695 68.0715C127.695 67.7232 127.614 67.4052 127.45 67.1236C127.286 66.842 127.065 66.6179 126.781 66.4574C126.499 66.2969 126.178 66.2151 125.827 66.2151C125.473 66.2151 125.152 66.2969 124.864 66.4574C124.576 66.6179 124.352 66.8389 124.188 67.1236C124.025 67.4052 123.943 67.7232 123.943 68.0715C123.943 68.4197 124.025 68.7377 124.188 69.0194C124.352 69.301 124.576 69.5251 124.864 69.6856C125.152 69.8461 125.473 69.9279 125.827 69.9279ZM130.242 66.2605V67.9443H132.662V68.5379H130.242V70.4881H129.552V65.6609H132.959V66.2605H130.242ZM136.856 66.2605H135.203V65.6609H139.194V66.2605H137.541V70.4881H136.859V66.2605H136.856ZM144.209 65.6609V70.4881H143.519V68.338H140.748V70.4881H140.06V65.6609H140.748V67.7353H143.519V65.6609H144.209ZM147.949 70.5426C147.461 70.5426 147.022 70.4366 146.632 70.2216C146.241 70.0066 145.935 69.7129 145.711 69.3343C145.487 68.9588 145.375 68.5379 145.375 68.0715C145.375 67.6081 145.487 67.1872 145.711 66.8087C145.935 66.4331 146.241 66.1364 146.632 65.9244C147.022 65.7094 147.461 65.6034 147.949 65.6034C148.431 65.6034 148.867 65.7094 149.257 65.9244C149.648 66.1364 149.954 66.4331 150.175 66.8056C150.396 67.1811 150.505 67.6021 150.505 68.0715C150.505 68.5409 150.396 68.9618 150.175 69.3373C149.954 69.7129 149.648 70.0066 149.257 70.2186C148.867 70.4306 148.431 70.5396 147.949 70.5396V70.5426ZM147.949 69.9279C148.303 69.9279 148.621 69.8491 148.903 69.6856C149.185 69.5251 149.409 69.304 149.572 69.0194C149.736 68.7377 149.817 68.4197 149.817 68.0715C149.817 67.7232 149.736 67.4052 149.572 67.1236C149.409 66.842 149.188 66.6179 148.903 66.4574C148.621 66.2969 148.303 66.2151 147.949 66.2151C147.595 66.2151 147.274 66.2969 146.986 66.4574C146.698 66.6179 146.474 66.8389 146.311 67.1236C146.147 67.4052 146.065 67.7232 146.065 68.0715C146.065 68.4197 146.147 68.7377 146.311 69.0194C146.474 69.301 146.698 69.5251 146.986 69.6856C147.274 69.8461 147.595 69.9279 147.949 69.9279ZM153.676 70.5426C153.034 70.5426 152.531 70.3579 152.174 69.9915C151.816 69.622 151.635 69.0951 151.635 68.4046V65.6609H152.325V68.3773C152.325 69.41 152.779 69.9279 153.685 69.9279C154.127 69.9279 154.463 69.8007 154.699 69.5463C154.932 69.2919 155.05 68.9013 155.05 68.3773V65.6609H155.72V68.4046C155.72 69.0981 155.541 69.6281 155.181 69.9945C154.823 70.3609 154.321 70.5426 153.679 70.5426H153.676ZM160.586 68.0473H161.25V69.9279C161.01 70.1247 160.732 70.2761 160.417 70.3821C160.099 70.4881 159.769 70.5396 159.423 70.5396C158.936 70.5396 158.497 70.4336 158.106 70.2186C157.715 70.0036 157.41 69.7098 157.185 69.3373C156.961 68.9618 156.852 68.5409 156.852 68.0715C156.852 67.6021 156.964 67.1781 157.185 66.8026C157.41 66.4271 157.715 66.1303 158.109 65.9214C158.503 65.7094 158.945 65.6034 159.436 65.6034C159.82 65.6034 160.171 65.667 160.486 65.7942C160.801 65.9214 161.068 66.1061 161.289 66.3483L160.862 66.7753C160.474 66.4029 160.008 66.2181 159.463 66.2181C159.096 66.2181 158.766 66.2969 158.473 66.4543C158.182 66.6118 157.952 66.8329 157.785 67.1176C157.619 67.3992 157.537 67.7172 157.537 68.0715C157.537 68.4197 157.619 68.7377 157.785 69.0194C157.952 69.301 158.179 69.5251 158.473 69.6856C158.763 69.8461 159.09 69.9279 159.454 69.9279C159.887 69.9279 160.262 69.8249 160.583 69.619V68.0473H160.586ZM166.828 65.6609V70.4881H166.137V68.338H163.366V70.4881H162.676V65.6609H163.366V67.7353H166.137V65.6609H166.828ZM169.347 66.2605H167.694V65.6609H171.685V66.2605H170.032V70.4881H169.35V66.2605H169.347ZM172.397 69.5826C172.524 69.5826 172.633 69.6281 172.718 69.7159C172.803 69.8067 172.845 69.9158 172.845 70.049C172.845 70.1187 172.836 70.1853 172.821 70.2489C172.806 70.3125 172.772 70.4124 172.727 70.5457L172.403 71.5026H171.97L172.224 70.476C172.137 70.4427 172.067 70.3912 172.015 70.3155C171.961 70.2398 171.937 70.152 171.937 70.049C171.937 69.9097 171.979 69.7977 172.067 69.7129C172.155 69.625 172.264 69.5826 172.397 69.5826ZM176.552 66.2605V67.9443H178.972V68.5379H176.552V70.4881H175.861V65.6609H179.268V66.2605H176.552ZM180.355 65.6609H181.046V70.4881H180.355V65.6609ZM185.834 70.4881L184.792 69.0072C184.665 69.0163 184.562 69.0224 184.489 69.0224H183.296V70.4911H182.606V65.6639H184.489C185.113 65.6639 185.607 65.8123 185.964 66.1121C186.324 66.4119 186.503 66.8238 186.503 67.3477C186.503 67.7202 186.412 68.0382 186.227 68.2986C186.043 68.5591 185.782 68.7498 185.44 68.871L186.585 70.4911H185.834V70.4881ZM184.468 68.4349C184.904 68.4349 185.237 68.341 185.467 68.1533C185.697 67.9655 185.813 67.696 185.813 67.3477C185.813 66.9994 185.697 66.7299 185.467 66.5452C185.237 66.3605 184.904 66.2666 184.468 66.2666H183.296V68.4379H184.468V68.4349ZM191.233 69.8885V70.4881H187.733V65.6609H191.139V66.2605H188.423V67.7414H190.843V68.3289H188.423V69.8885H191.236H191.233ZM196.497 70.5426C196.009 70.5426 195.57 70.4366 195.179 70.2216C194.789 70.0066 194.483 69.7129 194.259 69.3343C194.035 68.9588 193.923 68.5379 193.923 68.0715C193.923 67.6081 194.035 67.1872 194.259 66.8087C194.483 66.4331 194.789 66.1364 195.179 65.9244C195.57 65.7094 196.009 65.6034 196.497 65.6034C196.978 65.6034 197.417 65.7094 197.808 65.9244C198.199 66.1364 198.504 66.4331 198.726 66.8056C198.947 67.1811 199.056 67.6021 199.056 68.0715C199.056 68.5409 198.947 68.9618 198.726 69.3373C198.504 69.7129 198.199 70.0066 197.808 70.2186C197.417 70.4306 196.981 70.5396 196.497 70.5396V70.5426ZM196.497 69.9279C196.851 69.9279 197.169 69.8491 197.451 69.6856C197.732 69.5251 197.956 69.304 198.12 69.0194C198.283 68.7377 198.365 68.4197 198.365 68.0715C198.365 67.7232 198.283 67.4052 198.12 67.1236C197.956 66.842 197.735 66.6179 197.451 66.4574C197.169 66.2969 196.848 66.2151 196.497 66.2151C196.142 66.2151 195.821 66.2969 195.534 66.4574C195.246 66.6179 195.022 66.8389 194.858 67.1236C194.695 67.4052 194.613 67.7232 194.613 68.0715C194.613 68.4197 194.695 68.7377 194.858 69.0194C195.022 69.301 195.246 69.5251 195.534 69.6856C195.821 69.8461 196.142 69.9279 196.497 69.9279ZM200.912 66.2605V67.9443H203.332V68.5379H200.912V70.4881H200.222V65.6609H203.628V66.2605H200.912ZM211.045 70.4881L211.039 66.9722L209.294 69.9036H208.977L207.232 66.9934V70.4881H206.569V65.6609H207.135L209.149 69.0527L211.136 65.6609H211.702L211.708 70.4881H211.045ZM216.345 69.2828H213.779L213.25 70.4881H212.538L214.724 65.6609H215.406L217.598 70.4881H216.874L216.345 69.2828ZM216.102 68.7317L215.06 66.3665L214.019 68.7317H216.099H216.102ZM219.836 70.5457C219.473 70.5457 219.122 70.4881 218.785 70.3761C218.446 70.264 218.183 70.1187 217.989 69.937L218.243 69.3979C218.428 69.5645 218.664 69.6977 218.949 69.8007C219.237 69.9036 219.53 69.9551 219.836 69.9551C220.236 69.9551 220.536 69.8885 220.733 69.7522C220.929 69.616 221.029 69.4373 221.029 69.2101C221.029 69.0436 220.975 68.9103 220.866 68.8074C220.757 68.7044 220.624 68.6257 220.466 68.5712C220.309 68.5167 220.085 68.4531 219.794 68.3834C219.43 68.2956 219.137 68.2078 218.916 68.123C218.691 68.0351 218.501 67.9019 218.343 67.7202C218.186 67.5385 218.104 67.2932 218.104 66.9843C218.104 66.7269 218.171 66.4937 218.307 66.2878C218.443 66.0818 218.649 65.9153 218.925 65.7911C219.2 65.667 219.542 65.6034 219.951 65.6034C220.236 65.6034 220.518 65.6397 220.793 65.7124C221.069 65.7851 221.305 65.8911 221.505 66.0304L221.278 66.5815C221.075 66.4543 220.86 66.3544 220.63 66.2878C220.399 66.2212 220.175 66.1878 219.954 66.1878C219.564 66.1878 219.27 66.2605 219.076 66.4029C218.879 66.5452 218.782 66.7299 218.782 66.954C218.782 67.1206 218.837 67.2538 218.949 67.3568C219.058 67.4598 219.197 67.5415 219.358 67.5991C219.521 67.6566 219.742 67.7172 220.024 67.7808C220.387 67.8686 220.678 67.9564 220.899 68.0442C221.12 68.132 221.308 68.2653 221.468 68.444C221.626 68.6226 221.705 68.8649 221.705 69.1678C221.705 69.4191 221.635 69.6523 221.499 69.8612C221.359 70.0702 221.151 70.2368 220.872 70.3579C220.59 70.479 220.248 70.5396 219.839 70.5396L219.836 70.5457ZM223.713 66.2636H222.059V65.6639H226.05V66.2636H224.397V70.4911H223.716V66.2636H223.713ZM230.417 69.8915V70.4911H226.913V65.6639H230.32V66.2636H227.604V67.7444H230.024V68.3319H227.604V69.8915H230.417ZM234.875 70.4911L233.833 69.0103C233.706 69.0194 233.603 69.0254 233.53 69.0254H232.337V70.4942H231.647V65.667H233.53C234.154 65.667 234.648 65.8154 235.005 66.1152C235.366 66.415 235.544 66.8268 235.544 67.3507C235.544 67.7232 235.453 68.0412 235.269 68.3016C235.084 68.5621 234.824 68.7529 234.481 68.874L235.626 70.4942H234.875V70.4911ZM233.509 68.4379C233.945 68.4379 234.278 68.344 234.509 68.1563C234.739 67.9685 234.854 67.699 234.854 67.3507C234.854 67.0025 234.739 66.7329 234.509 66.5482C234.278 66.3635 233.945 66.2696 233.509 66.2696H232.337V68.4409H233.509V68.4379ZM238.551 68.8225V70.4911H237.87V68.8074L235.953 65.6639H236.692L238.237 68.2078L239.787 65.6639H240.468L238.551 68.8225Z" fill="#FEFEFE"/>
<path fill-rule="evenodd" clip-rule="evenodd" d="M42.4985 31.9068C42.4985 37.7334 47.2651 42.497 53.0887 42.497C47.2651 42.497 42.4985 47.2636 42.4985 53.0871C42.4985 47.2636 37.7319 42.497 31.9083 42.497C37.7319 42.497 42.4985 37.7303 42.4985 31.9068Z" fill="#F7FF05"/>
</svg>
