<svg width="40" height="23" viewBox="0 0 40 23" fill="none" xmlns="http://www.w3.org/2000/svg">
<g clip-path="url(#clip0_96_364)">
<path fill-rule="evenodd" clip-rule="evenodd" d="M20.0002 15.3126L33.5228 0.349091C33.7306 0.118751 33.9982 9.15527e-05 34.3092 9.15527e-05H38.8702C39.2984 9.15527e-05 39.6644 0.238187 39.8389 0.629842C40.0126 1.0215 39.9436 1.45271 39.6567 1.76991L20.7874 22.6509C20.5796 22.8813 20.312 22.9999 20.001 22.9999C19.6908 22.9999 19.4232 22.8813 19.2146 22.6509L0.345334 1.76991C0.0583791 1.45193 -0.0106453 1.02072 0.163079 0.629842C0.336803 0.238187 0.702865 9.15527e-05 1.13175 9.15527e-05H5.69278C6.00301 9.15527e-05 6.27057 0.118751 6.4792 0.349091L20.0018 15.3126H20.0002Z" fill="white"/>
</g>
<defs>
<clipPath id="clip0_96_364">
<rect width="39.8651" height="23" fill="white" transform="translate(0.0674438)"/>
</clipPath>
</defs>
</svg>
